<svg aria-hidden="true" style="position: absolute; width: 0; height: 0; overflow: hidden;" version="1.1" xmlns="http://www.w3.org/2000/svg" xmlns:xlink="http://www.w3.org/1999/xlink">
<defs>
<symbol id="icon-dot" viewBox="0 0 21 32">
<path fill="#00b068" style="fill: var(--color1, #00b068)" d="M12 13.333h-2.667c-0.736 0-1.333 0.597-1.333 1.333v2.667c0 0.736 0.597 1.333 1.333 1.333h2.667c0.736 0 1.333-0.597 1.333-1.333v-2.667c0-0.736-0.597-1.333-1.333-1.333z"></path>
</symbol>
<symbol id="icon-decor-bg-2" viewBox="0 0 42 32">
<path fill="#00b068" style="fill: var(--color1, #00b068)" opacity="0.8" d="M5.657 16.158h0.947c0.064 0 0.116 0.052 0.116 0.116v0.947c0 0.064-0.052 0.116-0.116 0.116h-0.947c-0.064 0-0.116-0.052-0.116-0.116v-0.947c0-0.064 0.052-0.116 0.116-0.116z"></path>
<path fill="#00b068" style="fill: var(--color1, #00b068)" opacity="0.8" d="M13.261 6.553h1.536c0.064 0 0.116 0.052 0.116 0.116v1.536c0 0.064-0.052 0.116-0.116 0.116h-1.536c-0.064 0-0.116-0.052-0.116-0.116v-1.536c0-0.064 0.052-0.116 0.116-0.116z"></path>
<path fill="#00b068" style="fill: var(--color1, #00b068)" opacity="0.8" d="M1.931 1.76h0.702c0.064 0 0.116 0.052 0.116 0.116v0.702c0 0.064-0.052 0.116-0.116 0.116h-0.702c-0.064 0-0.116-0.052-0.116-0.116v-0.702c0-0.064 0.052-0.116 0.116-0.116z"></path>
<path fill="#00b068" style="fill: var(--color1, #00b068)" opacity="0.8" d="M20.197 22.428h0.357c0.064 0 0.116 0.052 0.116 0.116v0.357c0 0.064-0.052 0.116-0.116 0.116h-0.357c-0.064 0-0.116-0.052-0.116-0.116v-0.357c0-0.064 0.052-0.116 0.116-0.116z"></path>
<path fill="#00b068" style="fill: var(--color1, #00b068)" opacity="0.8" d="M0.854 20.56h0.357c0.064 0 0.116 0.052 0.116 0.116v0.357c0 0.064-0.052 0.116-0.116 0.116h-0.357c-0.064 0-0.116-0.052-0.116-0.116v-0.357c0-0.064 0.052-0.116 0.116-0.116z"></path>
<path fill="#00b068" style="fill: var(--color1, #00b068)" opacity="0.8" d="M28.105 4.346h0.357c0.064 0 0.116 0.052 0.116 0.116v0.357c0 0.064-0.052 0.116-0.116 0.116h-0.357c-0.064 0-0.116-0.052-0.116-0.116v-0.357c0-0.064 0.052-0.116 0.116-0.116z"></path>
<path fill="#00b068" style="fill: var(--color1, #00b068)" opacity="0.8" d="M41.213 0.75h0.357c0.064 0 0.116 0.052 0.116 0.116v0.357c0 0.064-0.052 0.116-0.116 0.116h-0.357c-0.064 0-0.116-0.052-0.116-0.116v-0.357c0-0.064 0.052-0.116 0.116-0.116z"></path>
<path fill="#00b068" style="fill: var(--color1, #00b068)" opacity="0.8" d="M25.951 10.404c0-0.064 0.052-0.116 0.116-0.116h0.947c0.064 0 0.116 0.052 0.116 0.116v0.947c0 0.064-0.052 0.116-0.116 0.116h-0.947c-0.064 0-0.116-0.052-0.116-0.116v-0.947z"></path>
<path fill="#00b068" style="fill: var(--color1, #00b068)" opacity="0.8" d="M35.005 28.164h0.357c0.064 0 0.116 0.052 0.116 0.116v0.357c0 0.064-0.052 0.116-0.116 0.116h-0.357c-0.064 0-0.116-0.052-0.116-0.116v-0.357c0-0.064 0.052-0.116 0.116-0.116z"></path>
</symbol>
<symbol id="icon-greenSmall" viewBox="0 0 32 32">
<path fill="#00b068" style="fill: var(--color1, #00b068)" d="M17.333 13.333h-2.667c-0.736 0-1.333 0.597-1.333 1.333v2.667c0 0.736 0.597 1.333 1.333 1.333h2.667c0.736 0 1.333-0.597 1.333-1.333v-2.667c0-0.736-0.597-1.333-1.333-1.333z"></path>
</symbol>
</defs>
</svg>
