<svg xmlns="http://www.w3.org/2000/svg" aria-hidden="true" style="position:absolute;width:0;height:0;overflow:hidden">
  <defs>
    <symbol id="icon-brush-01" viewBox="0 0 32 32">
      <path fill="none" stroke="#00b068" stroke-linecap="round" stroke-linejoin="round" stroke-width="2.7" d="m17 20-5-5M2.7 29.3c2.6 0 6.1.5 8-1.3s1.8-4.8 0-6.6c-1.9-1.9-4.8-1.9-6.7 0s0 5.3-1.3 8z" style="stroke:var(--color1, #00b068)"/>
      <path fill="none" stroke="#00b068" stroke-linecap="round" stroke-linejoin="round" stroke-width="2.7" d="M10.7 21.3c-.7-.6-1-1-1.2-1.3-.4-.8-.4-1.8 0-2.6.2-.4.6-.7 1.3-1.3L23.9 3.9c1.2-1 3-1 4.1.1s1.1 3 0 4L16 21.3c-.6.7-1 1-1.3 1.2-.8.5-1.8.5-2.6.1-.4-.2-.7-.5-1.3-1.2z" style="stroke:var(--color1, #00b068)"/>
    </symbol>
    <symbol id="icon-hourglass-02" viewBox="0 0 32 32">
      <path fill="none" stroke="#00b068" stroke-linecap="round" stroke-linejoin="round" stroke-width="2.7" d="M24.2 2.7H7.8c-.6 0-1.1.5-1.1 1 0 3.6 1.4 7 3.9 9.6l1.6 1.6.3.3c.4.5.4 1.1 0 1.6l-.3.3-1.6 1.6c-2.5 2.6-4 6-4 9.5 0 .6.6 1.1 1.2 1.1h16.4c.6 0 1.1-.5 1.1-1 0-3.6-1.4-7-3.9-9.6l-1.6-1.6-.3-.3c-.4-.5-.4-1.1 0-1.6l.3-.3 1.6-1.6c2.5-2.6 4-6 4-9.5 0-.6-.6-1.1-1.2-1.1z" style="stroke:var(--color1, #00b068)"/>
    </symbol>
    <symbol id="icon-message-chat-circle" viewBox="0 0 32 32">
      <path fill="none" stroke="#00b068" stroke-linecap="round" stroke-linejoin="round" stroke-width="2.7" d="M8.1 15A10.7 10.7 0 0 1 18.7 2.7a10.7 10.7 0 0 1 10 14.4v.5l-.1.2v.5l.6 4.3v.9c-.1.1-.2.3-.4.3H28l-4.2-.6a3 3 0 0 0-.4 0H23l-.5.1a10.8 10.8 0 0 1-5.4.6m-7 5.4c4 0 7.2-3.3 7.2-7.3s-3.2-7.3-7.1-7.3C6.2 14.7 3 18 3 22c0 .8.1 1.6.4 2.3l.2.6v.3l-.1.5-.8 3.6 4-.5H7.3l.5.1a7 7 0 0 0 2.4.4z" style="stroke:var(--color1, #00b068)"/>
    </symbol>
    <symbol id="icon-user-01" viewBox="0 0 32 32">
      <path fill="none" stroke="#00b068" stroke-linecap="round" stroke-linejoin="round" stroke-width="2.7" d="M26.7 28c0-1.9 0-2.8-.3-3.5-.5-1.8-1.8-3-3.5-3.6-.8-.2-1.7-.2-3.6-.2h-6.6c-1.9 0-2.8 0-3.6.2-1.7.5-3 1.8-3.5 3.6-.3.7-.3 1.6-.3 3.5M16 16a6 6 0 1 0 0-12 6 6 0 0 0 0 12z" style="stroke:var(--color1, #00b068)"/>
    </symbol>
  </defs>
</svg>
