<svg aria-hidden="true" style="position: absolute; width: 0; height: 0; overflow: hidden;" version="1.1" xmlns="http://www.w3.org/2000/svg" xmlns:xlink="http://www.w3.org/1999/xlink">
<defs>



<symbol id="icon-phone" viewBox="0 0 32 32">
<path stroke-linejoin="round" stroke-linecap="round" stroke-miterlimit="4" stroke-width="1.3333" d="M3 9c0 11.045 8.955 20 20 20h3c1.657 0 3-1.343 3-3v0-1.829c0-0.688-0.468-1.288-1.136-1.455l-5.897-1.475c-0.587-0.147-1.203 0.073-1.564 0.556l-1.293 1.724c-0.376 0.501-1.025 0.723-1.613 0.507-4.43-1.661-7.863-5.094-9.488-9.413l-0.036-0.111c-0.216-0.588 0.005-1.237 0.507-1.613l1.724-1.293c0.484-0.361 0.703-0.979 0.556-1.564l-1.475-5.897c-0.169-0.657-0.756-1.136-1.455-1.136h-1.829c-1.657 0-3 1.343-3 3v0 3z"></path>
</symbol>

<symbol id="icon-mail" viewBox="0 0 32 32">
<path stroke-linejoin="round" stroke-linecap="round" stroke-miterlimit="4" stroke-width="1.3333" d="M29 9v14c0 1.657-1.343 3-3 3v0h-20c-1.657 0-3-1.343-3-3v0-14M29 9c0-1.657-1.343-3-3-3v0h-20c-1.657 0-3 1.343-3 3v0M29 9v0.324c0 0 0 0 0 0 0 1.075-0.565 2.017-1.414 2.547l-0.013 0.007-10 6.153c-0.447 0.28-0.991 0.446-1.573 0.446s-1.126-0.166-1.586-0.453l0.013 0.007-10-6.152c-0.862-0.537-1.427-1.48-1.427-2.554 0-0 0-0 0-0v0-0.325"></path>
</symbol>

<symbol id="icon-location" viewBox="0 0 32 32">
<path stroke-linejoin="round" stroke-linecap="round" stroke-miterlimit="4" stroke-width="1.3333" d="M20 14c0 2.209-1.791 4-4 4s-4-1.791-4-4v0c0-2.209 1.791-4 4-4s4 1.791 4 4v0 0z"></path>
<path stroke-linejoin="round" stroke-linecap="round" stroke-miterlimit="4" stroke-width="1.3333" d="M26 14c0 9.523-10 15-10 15s-10-5.477-10-15c0-5.523 4.477-10 10-10s10 4.477 10 10v0 0z"></path>
</symbol>

<symbol id="icon-Rectangle-2062" viewBox="0 0 32 32">
<path fill="#00b068" style="fill: var(--color1, #00b068)" d="M24 0h-16c-4.418 0-8 3.582-8 8v16c0 4.418 3.582 8 8 8h16c4.418 0 8-3.582 8-8v-16c0-4.418-3.582-8-8-8z"></path>
</symbol>
<symbol id="icon-arrow-left" viewBox="0 0 32 32">
<path stroke-linejoin="round" stroke-linecap="round" stroke-miterlimit="4" stroke-width="2.6667" d="M26.667 16h-21.333M13.333 24l-8-8 8-8"></path>
</symbol>
<symbol id="icon-arrow-right" viewBox="0 0 32 32">
<path stroke-linejoin="round" stroke-linecap="round" stroke-miterlimit="4" stroke-width="2.6667" d="M5.333 16h21.333M18.667 8l8 8-8 8"></path>
<symbol id="icon-delete-me-later" viewBox="0 0 32 32">
<path d="M16 16c2.946 0 5.333-2.388 5.333-5.333s-2.388-5.333-5.333-5.333v0c-2.946 0-5.333 2.388-5.333 5.333s2.388 5.333 5.333 5.333v0zM16 18.667c-3.561 0-10.667 1.787-10.667 5.333v1.333c0 0.732 0.599 1.333 1.333 1.333h18.667c0.732 0 1.333-0.601 1.333-1.333v-1.333c0-3.547-7.108-5.333-10.667-5.333z"></path>
<symbol id="icon-dot-3" viewBox="0 0 32 32">
<path fill="#f0f0f0" style="fill: var(--color1, #f0f0f0)" d="M18.809 10.866l-4.92-0.172c-1.359-0.047-2.498 1.015-2.546 2.374l-0.172 4.92c-0.047 1.359 1.015 2.498 2.374 2.546l4.92 0.172c1.359 0.047 2.498-1.015 2.546-2.374l0.172-4.92c0.047-1.359-1.015-2.498-2.374-2.546z"></path>
</symbol>
<symbol id="icon-dot-2" viewBox="0 0 32 32">
<path d="M18.809 10.866l-4.92-0.172c-1.359-0.047-2.498 1.015-2.546 2.374l-0.172 4.92c-0.047 1.359 1.015 2.498 2.374 2.546l4.92 0.172c1.359 0.047 2.498-1.015 2.546-2.374l0.172-4.92c0.047-1.359-1.015-2.498-2.374-2.546z"></path>
</symbol>
<symbol id="icon-dot-1" viewBox="0 0 32 32">
<path fill="#00b068" style="fill: var(--color2, #00b068)" d="M18.667 10.667h-5.333c-1.473 0-2.667 1.194-2.667 2.667v5.333c0 1.473 1.194 2.667 2.667 2.667h5.333c1.473 0 2.667-1.194 2.667-2.667v-5.333c0-1.473-1.194-2.667-2.667-2.667z"></path>
</symbol>
<symbol id="icon-x-1" viewBox="0 0 32 32">
<path stroke-linejoin="round" stroke-linecap="round" stroke-miterlimit="4" stroke-width="2.6667" d="M24 8l-16 16M8 8l16 16"></path>
</symbol>
<symbol id="icon-ep_success-filled" viewBox="0 0 32 32">
<path fill="#00b068" style="fill: var(--color1, #00b068)" d="M16 2c7.732 0 14 6.268 14 14s-6.268 14-14 14v0c-7.732 0-14-6.268-14-14s6.268-14 14-14v0zM14.256 18.762l-3.11-3.112c-0.217-0.217-0.517-0.352-0.849-0.352-0.663 0-1.201 0.538-1.201 1.201 0 0.332 0.134 0.632 0.352 0.849l3.96 3.96c0.217 0.218 0.517 0.354 0.849 0.354s0.632-0.135 0.849-0.354l8.2-8.202c0.222-0.218 0.359-0.521 0.359-0.856 0-0.663-0.537-1.2-1.2-1.2-0.335 0-0.637 0.137-0.855 0.358l-7.354 7.354z"></path>
</symbol>
<symbol id="icon-dot" viewBox="0 0 21 32">
<path fill="#00b068" style="fill: var(--color1, #00b068)" d="M12 13.333h-2.667c-0.736 0-1.333 0.597-1.333 1.333v2.667c0 0.736 0.597 1.333 1.333 1.333h2.667c0.736 0 1.333-0.597 1.333-1.333v-2.667c0-0.736-0.597-1.333-1.333-1.333z"></path>
</symbol>

<symbol id="icon-greenSmall" viewBox="0 0 32 32">
<path fill="#00b068" style="fill: var(--color1, #00b068)" d="M17.333 13.333h-2.667c-0.736 0-1.333 0.597-1.333 1.333v2.667c0 0.736 0.597 1.333 1.333 1.333h2.667c0.736 0 1.333-0.597 1.333-1.333v-2.667c0-0.736-0.597-1.333-1.333-1.333z"></path>
</symbol>

<symbol id="icon-Rectangle-2062" viewBox="0 0 32 32">
<path fill="#00b068" style="fill: var(--color1, #00b068)" d="M24 0h-16c-4.418 0-8 3.582-8 8v16c0 4.418 3.582 8 8 8h16c4.418 0 8-3.582 8-8v-16c0-4.418-3.582-8-8-8z"></path>
</symbol>

<symbol id="icon-brush-01" viewBox="0 0 32 32">
      <path fill="none" stroke="#00b068" stroke-linecap="round" stroke-linejoin="round" stroke-width="2.7" d="m17 20-5-5M2.7 29.3c2.6 0 6.1.5 8-1.3s1.8-4.8 0-6.6c-1.9-1.9-4.8-1.9-6.7 0s0 5.3-1.3 8z" style="stroke:var(--color1, #00b068)"/>
      <path fill="none" stroke="#00b068" stroke-linecap="round" stroke-linejoin="round" stroke-width="2.7" d="M10.7 21.3c-.7-.6-1-1-1.2-1.3-.4-.8-.4-1.8 0-2.6.2-.4.6-.7 1.3-1.3L23.9 3.9c1.2-1 3-1 4.1.1s1.1 3 0 4L16 21.3c-.6.7-1 1-1.3 1.2-.8.5-1.8.5-2.6.1-.4-.2-.7-.5-1.3-1.2z" style="stroke:var(--color1, #00b068)"/>
    </symbol>
    <symbol id="icon-hourglass-02" viewBox="0 0 32 32">
      <path fill="none" stroke="#00b068" stroke-linecap="round" stroke-linejoin="round" stroke-width="2.7" d="M24.2 2.7H7.8c-.6 0-1.1.5-1.1 1 0 3.6 1.4 7 3.9 9.6l1.6 1.6.3.3c.4.5.4 1.1 0 1.6l-.3.3-1.6 1.6c-2.5 2.6-4 6-4 9.5 0 .6.6 1.1 1.2 1.1h16.4c.6 0 1.1-.5 1.1-1 0-3.6-1.4-7-3.9-9.6l-1.6-1.6-.3-.3c-.4-.5-.4-1.1 0-1.6l.3-.3 1.6-1.6c2.5-2.6 4-6 4-9.5 0-.6-.6-1.1-1.2-1.1z" style="stroke:var(--color1, #00b068)"/>
    </symbol>
    <symbol id="icon-message-chat-circle" viewBox="0 0 32 32">
      <path fill="none" stroke="#00b068" stroke-linecap="round" stroke-linejoin="round" stroke-width="2.7" d="M8.1 15A10.7 10.7 0 0 1 18.7 2.7a10.7 10.7 0 0 1 10 14.4v.5l-.1.2v.5l.6 4.3v.9c-.1.1-.2.3-.4.3H28l-4.2-.6a3 3 0 0 0-.4 0H23l-.5.1a10.8 10.8 0 0 1-5.4.6m-7 5.4c4 0 7.2-3.3 7.2-7.3s-3.2-7.3-7.1-7.3C6.2 14.7 3 18 3 22c0 .8.1 1.6.4 2.3l.2.6v.3l-.1.5-.8 3.6 4-.5H7.3l.5.1a7 7 0 0 0 2.4.4z" style="stroke:var(--color1, #00b068)"/>
    </symbol>
    <symbol id="icon-user-01" viewBox="0 0 32 32">
      <path fill="none" stroke="#00b068" stroke-linecap="round" stroke-linejoin="round" stroke-width="2.7" d="M26.7 28c0-1.9 0-2.8-.3-3.5-.5-1.8-1.8-3-3.5-3.6-.8-.2-1.7-.2-3.6-.2h-6.6c-1.9 0-2.8 0-3.6.2-1.7.5-3 1.8-3.5 3.6-.3.7-.3 1.6-.3 3.5M16 16a6 6 0 1 0 0-12 6 6 0 0 0 0 12z" style="stroke:var(--color1, #00b068)"/>
    </symbol>
</defs>
</svg>