<svg aria-hidden="true" style="position: absolute; width: 0; height: 0; overflow: hidden;" version="1.1" xmlns="http://www.w3.org/2000/svg" xmlns:xlink="http://www.w3.org/1999/xlink">
<defs>
<symbol id="icon-delete-me-later" viewBox="0 0 32 32">
<path d="M16 16c2.946 0 5.333-2.388 5.333-5.333s-2.388-5.333-5.333-5.333v0c-2.946 0-5.333 2.388-5.333 5.333s2.388 5.333 5.333 5.333v0zM16 18.667c-3.561 0-10.667 1.787-10.667 5.333v1.333c0 0.732 0.599 1.333 1.333 1.333h18.667c0.732 0 1.333-0.601 1.333-1.333v-1.333c0-3.547-7.108-5.333-10.667-5.333z"></path>
<symbol id="icon-dot-3" viewBox="0 0 32 32">
<path fill="#f0f0f0" style="fill: var(--color1, #f0f0f0)" d="M18.809 10.866l-4.92-0.172c-1.359-0.047-2.498 1.015-2.546 2.374l-0.172 4.92c-0.047 1.359 1.015 2.498 2.374 2.546l4.92 0.172c1.359 0.047 2.498-1.015 2.546-2.374l0.172-4.92c0.047-1.359-1.015-2.498-2.374-2.546z"></path>
</symbol>
<symbol id="icon-dot-2" viewBox="0 0 32 32">
<path d="M18.809 10.866l-4.92-0.172c-1.359-0.047-2.498 1.015-2.546 2.374l-0.172 4.92c-0.047 1.359 1.015 2.498 2.374 2.546l4.92 0.172c1.359 0.047 2.498-1.015 2.546-2.374l0.172-4.92c0.047-1.359-1.015-2.498-2.374-2.546z"></path>
</symbol>
<symbol id="icon-dot-1" viewBox="0 0 32 32">
<path fill="#00b068" style="fill: var(--color2, #00b068)" d="M18.667 10.667h-5.333c-1.473 0-2.667 1.194-2.667 2.667v5.333c0 1.473 1.194 2.667 2.667 2.667h5.333c1.473 0 2.667-1.194 2.667-2.667v-5.333c0-1.473-1.194-2.667-2.667-2.667z"></path>
</symbol>
</defs>
</svg>