<svg xmlns="http://www.w3.org/2000/svg" aria-hidden="true" style="position:absolute;width:0;height:0;overflow:hidden">
  <defs>
    <symbol id="icon-arrow-iconsvg" viewBox="0 0 60 32">
      <path d="M2 14a2 2 0 1 0 0 4v-4zm57.414 3.414a2 2 0 0 0 0-2.828L46.686 1.858a2 2 0 1 0-2.828 2.828L55.172 16 43.858 27.314a2 2 0 1 0 2.828 2.828l12.728-12.728zM2 18h56v-4H2v4z"/>
    </symbol>
    <symbol id="icon-decorative-1" viewBox="0 0 41 32">
      <path d="M33.182 15.574h-.95a.116.116 0 0 0-.116.116v.95c0 .064.052.116.116.116h.95a.116.116 0 0 0 .116-.116v-.95a.116.116 0 0 0-.116-.116zM22.885 30.818h-.95a.116.116 0 0 0-.116.116v.95c0 .064.052.116.116.116h.95a.116.116 0 0 0 .116-.116v-.95a.116.116 0 0 0-.116-.116zM24.98 1.95h-1.541a.116.116 0 0 0-.116.116v1.541c0 .064.052.116.116.116h1.541a.116.116 0 0 0 .116-.116V2.066a.116.116 0 0 0-.116-.116zM38.245 11.958h-1.541a.116.116 0 0 0-.116.116v1.541c0 .064.052.116.116.116h1.541a.116.116 0 0 0 .116-.116v-1.541a.116.116 0 0 0-.116-.116zM24.398 22.914h-.358a.116.116 0 0 0-.116.116v.358c0 .064.052.116.116.116h.358a.116.116 0 0 0 .116-.116v-.358a.116.116 0 0 0-.116-.116zM40.805 20.554h-.358a.116.116 0 0 0-.116.116v.358c0 .064.052.116.116.116h.358a.116.116 0 0 0 .116-.116v-.358a.116.116 0 0 0-.116-.116zM13.624 3.674h-.358a.116.116 0 0 0-.116.116v.358c0 .064.052.116.116.116h.358a.116.116 0 0 0 .116-.116V3.79a.116.116 0 0 0-.116-.116zM.475.067H.117a.116.116 0 0 0-.116.116v.358c0 .064.052.116.116.116h.358A.116.116 0 0 0 .591.541V.183A.116.116 0 0 0 .475.067zM20.791 14.41h-.95a.116.116 0 0 0-.116.116v.95c0 .064.052.116.116.116h.95a.116.116 0 0 0 .116-.116v-.95a.116.116 0 0 0-.116-.116zM16.02 25.591h-.358a.116.116 0 0 0-.116.116v.358c0 .064.052.116.116.116h.358a.116.116 0 0 0 .116-.116v-.358a.116.116 0 0 0-.116-.116z"/>
    </symbol>
    <symbol id="icon-decorative-2" viewBox="0 0 43 32">
      <path d="M34.434 15.838h-.985a.12.12 0 0 1-.121-.121v-.985a.12.12 0 0 1 .121-.121h.985a.12.12 0 0 1 .121.121v.985a.12.12 0 0 1-.121.121zM29.666 1.227h-.985a.12.12 0 0 1-.121-.121V.121A.12.12 0 0 1 28.681 0h.985a.12.12 0 0 1 .121.121v.985a.12.12 0 0 1-.121.121zM25.923 29.976h-1.599a.12.12 0 0 1-.121-.121v-1.599a.12.12 0 0 1 .121-.121h1.599a.12.12 0 0 1 .121.121v1.599a.12.12 0 0 1-.121.121zM39.689 19.591H38.09a.12.12 0 0 1-.121-.121v-1.599a.12.12 0 0 1 .121-.121h1.599a.12.12 0 0 1 .121.121v1.599a.12.12 0 0 1-.121.121zM25.319 8.221h-.372a.12.12 0 0 1-.121-.121v-.372a.12.12 0 0 1 .121-.121h.372a.12.12 0 0 1 .121.121V8.1a.12.12 0 0 1-.121.121zM42.345 10.67h-.372a.12.12 0 0 1-.121-.121v-.372a.12.12 0 0 1 .121-.121h.372a.12.12 0 0 1 .121.121v.372a.12.12 0 0 1-.121.121zM14.138 28.187h-.372a.12.12 0 0 1-.121-.121v-.372a.12.12 0 0 1 .121-.121h.372a.12.12 0 0 1 .121.121v.372a.12.12 0 0 1-.121.121zM.493 31.931H.121A.12.12 0 0 1 0 31.81v-.372a.12.12 0 0 1 .121-.121h.372a.12.12 0 0 1 .121.121v.372a.12.12 0 0 1-.121.121zM21.575 17.046h-.985a.12.12 0 0 1-.121-.121v-.985a.12.12 0 0 1 .121-.121h.985a.12.12 0 0 1 .121.121v.985a.12.12 0 0 1-.121.121zM16.624 5.444h-.372a.12.12 0 0 1-.121-.121v-.372a.12.12 0 0 1 .121-.121h.372a.12.12 0 0 1 .121.121v.372a.12.12 0 0 1-.121.121z"/>
    </symbol>
  </defs>
</svg>
